# xmcd
#
# Track frame offsets: 
#        150
#        14843
#        35953
#        53279
#        67166
#        87790
#        106478
#        130902
#        147539
#        165408
#
# Disc length: 2387 seconds
#
# Revision: 0
# Processed by: cddbd v1.5.2PL0 Copyright (c) Steve Scherf et al.
# Submitted via: ExactAudioCopy v0.99pb5
#
DISCID=8e09510a
DTITLE=Rich Harper Blues Band - Don't Think, Just Play
DYEAR=1996
DGENRE=Blues
TTITLE0=No More
TTITLE1=I love The Woman
TTITLE2=Blue Eyed Blues
TTITLE3=Color Me Gone
TTITLE4=She's On Her Way Up
TTITLE5=Get Out Of My Life, Woman
TTITLE6=The Thrill is Gone
TTITLE7=Just As Well
TTITLE8=Hands Off
TTITLE9=Guitar Rag
EXTD=
EXTT0=
EXTT1=
EXTT2=
EXTT3=
EXTT4=
EXTT5=
EXTT6=
EXTT7=
EXTT8=
EXTT9=
PLAYORDER=
